# xmcd CD database file
# Copyright (C) 1993-1998 Ti Kan
#
# Track frame offsets:
#	150
#	16122
#	38555
#
# Disc length: 711 seconds
#
# Revision: 1
# Processed by: cddbd v1.4b41PL1 Copyright (c) Steve Scherf et al.
# Submitted via: QuintessentialCD v1.1 (c) 1998 Paul Quinn
#
DISCID=1302c503
DTITLE=Aretha Franklin - Here We Go Again (single)
DYEAR=1900
DGENRE=
TTITLE0=Here We Go Again
TTITLE1=In The Morning
TTITLE2=Nessun Dorma
EXTD=
EXTT0=
EXTT1=
EXTT2=
PLAYORDER=
